<svg width="3920" height="616" viewBox="0 0 3920 616" fill="none" xmlns="http://www.w3.org/2000/svg">
<path d="M387.84 458C371.84 458 340.103 457.944 292.63 457.83C245.157 457.717 206.75 457.664 177.41 457.67C142.95 457.67 107.157 457.724 70.03 457.83C32.9034 457.937 9.56004 457.994 4.15737e-05 458C4.15737e-05 447.774 0.110042 425.207 0.330042 390.3C0.550042 355.394 0.663375 298.157 0.670042 218.59C0.670042 192.13 0.556708 160.267 0.330042 123C0.103375 85.7336 -0.00662509 48.5636 4.15737e-05 11.4902C14 11.4902 37.7334 11.5469 71.2 11.6602C104.667 11.7736 137.737 11.8302 170.41 11.8302C203.31 11.8302 244.997 11.7736 295.47 11.6602C345.943 11.5469 375.4 11.4902 383.84 11.4902V141.55C378.06 141.55 362.727 141.497 337.84 141.39C312.953 141.284 296.057 141.227 287.15 141.22C274.483 141.22 255.697 141.277 230.79 141.39C205.883 141.504 186.653 141.557 173.1 141.55V187.24C186.88 187.24 205.5 187.297 228.96 187.41C252.42 187.524 270.37 187.577 282.81 187.57C297.93 187.57 314.16 187.517 331.5 187.41C348.84 187.304 364.173 187.247 377.5 187.24V280.24C369.5 280.24 353.717 280.187 330.15 280.08C306.583 279.974 290.463 279.947 281.79 280C269.337 280 251.607 280.057 228.6 280.17C205.593 280.284 187.087 280.337 173.08 280.33V328C186.86 328 207.257 328.057 234.27 328.17C261.283 328.284 281.237 328.337 294.13 328.33C309.25 328.33 325.98 328.277 344.32 328.17C362.66 328.064 377.167 328.007 387.84 328V458Z" fill="white"/>
<path d="M1285.91 302H1067.14C1067.14 310.667 1071.59 318.893 1080.48 326.68C1089.37 334.467 1103.16 340.357 1121.83 344.35C1135.31 347.369 1149.03 349.209 1162.83 349.85C1175.95 350.41 1188.07 350.69 1199.18 350.69C1215.41 350.69 1228.75 350.633 1239.18 350.52C1249.61 350.407 1258.73 350.24 1266.52 350.02L1250.85 460.4C1242.4 461.067 1231.95 461.733 1219.5 462.4C1207.05 463.067 1193.26 463.4 1178.15 463.4C1135.69 463.4 1096.84 459.567 1061.6 451.9C1026.36 444.233 995.413 430.933 968.76 412C946.527 396 929.463 376.823 917.57 354.47C905.693 332.171 899.561 307.264 899.73 282C899.73 255.333 904.01 232.043 912.57 212.13C921.13 192.217 936.417 172.487 958.43 152.94C975.763 137.38 997.097 125.487 1022.43 117.26C1046.86 109.185 1072.4 105.02 1098.13 104.92C1126.36 104.92 1151.82 108.643 1174.49 116.09C1197.16 123.537 1216.5 134.597 1232.49 149.27C1252.28 167.73 1266.12 189.397 1274.01 214.27C1281.9 239.143 1285.87 268.387 1285.91 302ZM1131.84 247.31C1131.84 233.31 1128.67 221.643 1122.33 212.31C1115.99 202.977 1106.04 198.31 1092.49 198.31C1079.59 198.31 1069.53 202.7 1062.31 211.48C1055.09 220.26 1051.14 232.21 1050.47 247.33L1131.84 247.31Z" fill="white"/>
<path d="M1762 458H1594.21C1594.21 450 1594.32 437.717 1594.55 421.15C1594.78 404.583 1594.89 383.407 1594.88 357.62C1594.88 347.173 1594.82 333.277 1594.71 315.93C1594.6 298.583 1594.43 284.69 1594.21 274.25C1594.21 260.69 1592.54 250.463 1589.21 243.57C1585.88 236.677 1579.76 233.23 1570.87 233.23C1562.61 233.27 1554.4 234.565 1546.52 237.07C1538.3 239.623 1532.19 241.68 1528.18 243.24C1527.96 289.24 1527.85 317.696 1527.85 328.61C1527.85 350.61 1527.96 376.51 1528.18 406.31C1528.4 436.11 1528.51 453.34 1528.52 458H1360.77C1360.77 448 1360.88 429.823 1361.11 403.47C1361.34 377.117 1361.45 339.713 1361.44 291.26C1361.44 255.26 1361.33 223.523 1361.11 196.05C1360.89 168.577 1360.78 141.173 1360.77 113.84H1524.85L1524.51 136.19L1525.18 136.85C1533.18 133.303 1550.74 127.08 1577.87 118.18C1605 109.28 1630.33 104.833 1653.87 104.84C1687.66 104.84 1714.11 115.123 1733.24 135.69C1752.37 156.257 1761.95 183.223 1762 216.59C1762 242.377 1761.89 262.55 1761.67 277.11C1761.45 291.67 1761.34 304.733 1761.33 316.3C1761.33 337.633 1761.44 363.257 1761.67 393.17C1761.9 423.083 1762.01 444.693 1762 458Z" fill="white"/>
<path d="M2151.3 348.65L2137 462C2131.43 462.44 2124.2 462.774 2115.32 463C2106.44 463.227 2091.21 463.337 2069.63 463.33C2004.96 463.33 1956.11 451.997 1923.07 429.33C1890.03 406.664 1873.52 373.997 1873.54 331.33C1873.54 303.544 1873.65 282.7 1873.88 268.8C1874.11 254.9 1874.22 242.17 1874.21 230.61H1819.21V113.87H1876.21V11.4902H2040.62V113.87H2148.33V230.59H2040.58C2040.58 235.924 2040.52 240.257 2040.41 243.59C2040.3 246.924 2040.24 252.037 2040.25 258.93C2040.25 263.597 2040.3 269.21 2040.41 275.77C2040.52 282.33 2040.57 286.834 2040.58 289.28C2040.58 307.28 2046.03 321.674 2056.92 332.46C2067.81 343.247 2094.27 348.64 2136.29 348.64H2151.29L2151.3 348.65Z" fill="white"/>
<path d="M3014.59 429.19L2839.51 462.19L2800.16 258.1H2796.83C2794.16 266.32 2788.83 283.55 2780.83 309.79C2772.83 336.03 2763.16 369.03 2751.83 408.79H2619.75C2606.85 362.79 2596.73 328.663 2589.4 306.41C2582.07 284.157 2576.73 268.04 2573.4 258.06H2570.07C2566.51 275.18 2561.12 303.357 2553.89 342.59C2546.66 381.823 2539.49 421.677 2532.38 462.15L2361.31 429.15C2386.21 314.21 2405.38 221.39 2418.83 150.69C2432.28 79.99 2441 34.9833 2445 15.67L2623.08 0C2627.08 13.3333 2634.81 39.5667 2646.26 78.7C2657.71 117.833 2670.77 161.63 2685.44 210.09H2688.78C2702.11 170.523 2716.4 127.523 2731.63 81.09C2746.86 34.6567 2755.81 7.65667 2758.48 0.09L2944.89 15.76C2946.89 27.0933 2953.45 68.0033 2964.57 138.49C2975.69 208.977 2992.36 305.877 3014.59 429.19Z" fill="white"/>
<path d="M3436.61 293.47V453.54C3431.5 453.98 3411.71 455.147 3377.25 457.04C3342.79 458.934 3311.79 459.877 3284.25 459.87C3265.13 459.87 3239.95 458.37 3208.72 455.37C3177.49 452.37 3152.2 447.09 3132.85 439.53C3108.85 429.97 3090.73 417.637 3078.49 402.53C3066.51 388.114 3060.01 369.925 3060.15 351.18C3060.15 329.847 3065.93 311.784 3077.49 296.99C3089.05 282.197 3109.84 269.8 3139.85 259.8C3161.42 252.467 3186.27 247.52 3214.39 244.96C3242.51 242.4 3260.46 241.01 3268.24 240.79C3268.32 238.459 3267.9 236.138 3267.01 233.982C3266.12 231.826 3264.78 229.885 3263.08 228.29C3259.63 225.07 3251.57 222.347 3238.9 220.12C3230.51 218.69 3222.05 217.742 3213.55 217.28C3204.22 216.734 3192.77 216.457 3179.2 216.45C3161.42 216.45 3146.03 216.674 3133.02 217.12C3120.01 217.567 3108.62 217.9 3098.84 218.12L3112.17 103.73H3177.87C3230.54 103.73 3272.28 107.624 3303.09 115.41C3333.9 123.197 3360.19 136.09 3381.96 154.09C3401.96 170.544 3416.08 190.054 3424.31 212.62C3432.54 235.187 3436.64 262.137 3436.61 293.47ZM3279.88 329.81V293.81C3275.69 293.987 3271.51 294.432 3267.37 295.14C3261.48 296.027 3254.53 298.474 3246.53 302.48C3242.31 304.7 3237.98 308.48 3233.53 313.82C3229.05 319.251 3226.68 326.12 3226.86 333.16C3226.86 342.054 3229.03 348.947 3233.37 353.84C3237.45 358.548 3242.52 362.303 3248.21 364.84C3252.1 366.569 3256.19 367.802 3260.38 368.51C3265.83 369.455 3271.36 369.9 3276.89 369.84H3279.89V329.84L3279.88 329.81Z" fill="white"/>
<path d="M3920 277.12C3920 311.12 3912 339.633 3896 362.66C3880 385.686 3858.43 404.753 3831.3 419.86C3812.63 430.08 3790.63 438.026 3765.3 443.7C3739.97 449.373 3716.18 452.32 3693.94 452.54L3694.6 605.27H3526.82C3526.82 585.936 3526.93 554.09 3527.15 509.73C3527.37 465.37 3527.48 409.176 3527.49 341.15C3527.49 310.03 3527.38 273.18 3527.15 230.6C3526.92 188.02 3526.81 147.613 3526.82 109.38C3536.82 109.38 3550.27 109.27 3567.17 109.05C3584.07 108.83 3596.85 108.72 3605.52 108.72C3644.85 108.72 3679.87 109.94 3710.57 112.38C3741.27 114.82 3773.41 122.046 3807 134.06C3844.57 147.62 3872.81 167.183 3891.7 192.75C3910.59 218.316 3920.03 246.44 3920 277.12ZM3752.92 288.12C3752.96 278.961 3750.97 269.907 3747.09 261.61C3743.27 253.368 3737.2 246.373 3729.58 241.43C3723.34 237.251 3716.29 234.411 3708.9 233.09C3702.06 231.986 3695.15 231.431 3688.23 231.43H3684.56V351.49C3692.03 351.396 3699.46 350.501 3706.74 348.82C3714.84 347.053 3721.23 344.61 3725.91 341.49C3734.58 335.71 3741.24 329.15 3745.91 321.81C3750.58 314.47 3752.91 303.243 3752.92 288.13V288.12Z" fill="white"/>
<path d="M646.74 615.84C566.28 518.44 492.2 424.52 457.93 306.7C428.69 206.19 473.14 106.08 564.79 66.8097C639.68 34.7197 711.79 42.4697 774.68 95.9897C840.47 151.99 859.24 224.85 835.77 306.36C801.83 424.18 728 518.46 646.74 615.84ZM644.74 178.84C605.34 179.7 577.47 209.84 578.92 249.91C580.28 287.73 608.57 314.72 646.92 314.74C686.92 314.74 715.5 285.8 714.98 245.74C714.39 206 685 178 644.73 178.88L644.74 178.84Z" fill="#DF2E33"/>
</svg>
